<?xml version="1.0" standalone="no"?>
<!DOCTYPE svg PUBLIC "-//W3C//DTD SVG 20010904//EN"
 "http://www.w3.org/TR/2001/REC-SVG-20010904/DTD/svg10.dtd">
<svg version="1.0" xmlns="http://www.w3.org/2000/svg"
 width="32" height="33" viewBox="0 0 331.000000 387.000000"
 preserveAspectRatio="xMidYMid meet">

<g transform="translate(0.000000,387.000000) scale(0.100000,-0.100000)"
fill="#000000" stroke="none">
<path d="M1630 3592 c0 -4 -12 -13 -27 -19 -16 -7 -49 -25 -75 -40 -103 -61
-195 -115 -223 -131 -16 -9 -32 -19 -35 -22 -5 -5 -33 -23 -115 -70 -16 -10
-66 -39 -110 -65 -44 -26 -98 -58 -120 -70 -57 -30 -89 -49 -95 -55 -3 -3 -16
-11 -29 -18 -13 -8 -107 -61 -209 -118 -103 -58 -189 -108 -192 -112 -3 -4
-22 -18 -43 -32 -21 -14 -49 -44 -62 -67 -24 -40 -25 -48 -25 -226 l0 -184
-31 -7 c-17 -3 -50 -6 -73 -6 -22 0 -57 -5 -77 -10 l-37 -10 -7 -228 c-4 -125
-4 -371 0 -547 5 -176 8 -332 8 -347 0 -15 4 -25 8 -22 5 3 9 12 9 20 0 8 2
14 4 14 35 0 424 -184 432 -205 4 -11 -84 -177 -105 -198 -6 -6 -11 -14 -11
-18 0 -6 88 -62 121 -77 4 -2 9 9 13 23 4 14 11 25 16 25 6 0 10 4 10 10 0 19
95 159 108 160 17 0 271 -108 370 -157 77 -39 84 -52 52 -93 -11 -14 -20 -29
-20 -33 0 -5 -25 -54 -56 -109 -63 -115 -67 -101 46 -165 36 -20 67 -40 68
-45 2 -4 8 -8 13 -8 10 0 84 -44 169 -99 30 -20 66 -42 80 -48 14 -7 53 -30
87 -52 122 -77 211 -75 353 9 46 28 87 50 91 50 4 0 9 4 11 8 2 5 39 28 82 53
44 24 100 56 125 71 25 15 57 33 71 40 14 7 27 15 30 19 4 5 73 44 188 109 15
9 72 42 127 75 55 33 109 65 120 71 11 6 72 42 135 79 63 37 160 93 215 124
64 36 122 78 161 117 53 53 62 67 67 109 4 26 7 328 7 670 l0 622 -52 7 c-29
3 -78 6 -109 6 -50 0 -57 3 -63 23 -9 35 -7 290 3 306 18 28 -50 130 -86 131
-7 0 -13 3 -13 8 0 4 -19 16 -43 27 -23 11 -46 24 -52 28 -14 11 -277 167
-282 167 -2 0 -31 18 -64 40 -33 22 -62 40 -64 40 -2 0 -41 23 -87 51 -46 28
-112 69 -148 91 -36 22 -102 64 -148 92 -46 28 -96 59 -110 68 -15 10 -43 27
-62 38 -19 11 -53 32 -75 45 -22 14 -55 33 -72 42 -18 9 -33 20 -33 25 0 4
-13 8 -30 8 -16 0 -30 -4 -30 -8z m-50 -854 c0 -7 -14 -33 -30 -58 -16 -25
-30 -51 -30 -57 0 -7 -4 -13 -8 -13 -5 0 -16 -15 -25 -32 -9 -18 -35 -62 -57
-97 -22 -34 -40 -65 -40 -67 0 -3 -5 -10 -10 -17 -6 -7 -23 -32 -39 -57 -32
-52 -177 -286 -194 -314 -7 -11 -31 -48 -54 -82 -24 -35 -43 -67 -43 -72 0
-25 -38 -17 -123 27 -110 57 -276 166 -284 187 -3 8 1 22 10 32 8 9 25 37 38
61 13 24 29 51 34 60 6 9 21 34 34 56 25 42 77 122 155 241 71 109 120 150
231 195 37 15 60 17 248 18 143 1 187 -2 187 -11z m670 2 c0 -11 -75 -152
-146 -275 -13 -22 -32 -56 -41 -75 -10 -19 -20 -37 -23 -40 -6 -6 -163 -279
-169 -295 -2 -5 -7 -12 -10 -15 -4 -3 -12 -16 -18 -30 -7 -14 -26 -47 -43 -75
-32 -55 -102 -173 -128 -220 -9 -16 -23 -35 -29 -43 -7 -7 -13 -17 -13 -22 0
-5 -11 -20 -25 -34 -27 -27 -26 -27 -130 9 -27 10 -112 49 -188 87 l-138 69
37 67 c32 59 86 151 134 233 25 43 94 158 117 197 13 20 33 56 45 80 12 23 26
42 30 42 4 0 8 4 8 9 0 11 167 290 187 313 13 14 37 18 132 21 294 8 411 7
411 -3z m740 -1660 c0 -5 -5 -10 -11 -10 -5 0 -7 5 -4 10 3 6 8 10 11 10 2 0
4 -4 4 -10z" fill="currentColor"/>
</g>
</svg>
